<svg width="99" height="96" fill="none" xmlns="http://www.w3.org/2000/svg"><path d="M7.336 95.922v-7.348H4.471v-.644h6.404v.644h-2.87v7.348h-.669zm5.856.004v-7.99h5.256v.643h-4.596v2.944h4.025v.644h-4.024v3.12h4.693v.64h-5.354zM24.35 96a3.141 3.141 0 01-1.502-.366 3.746 3.746 0 01-1.168-.94 4.419 4.419 0 01-.758-1.311 4.172 4.172 0 01-.024-2.932c.165-.469.407-.893.725-1.274.33-.392.723-.7 1.181-.927.469-.235 1.008-.354 1.602-.354.706 0 1.32.166 1.82.495a3.026 3.026 0 011.113 1.27l.063.134-.583.275-.065-.126a2.513 2.513 0 00-1.72-1.325 3.358 3.358 0 00-.68-.07 2.784 2.784 0 00-1.298.295c-.373.19-.693.447-.961.77a3.375 3.375 0 00-.595 1.08 3.778 3.778 0 00-.202 1.22c-.001.45.079.885.24 1.305.153.406.373.773.657 1.1.28.316.609.566.986.752a2.691 2.691 0 001.207.28c.242-.002.48-.033.714-.094.247-.059.482-.148.706-.268a2.79 2.79 0 00.626-.459c.197-.196.36-.418.49-.665l.06-.116.587.232-.061.14a2.733 2.733 0 01-.558.815c-.23.234-.49.43-.777.59a3.637 3.637 0 01-.896.354 3.95 3.95 0 01-.93.12zm11.112-.074v-3.76h-4.796v3.76h-.66v-7.99h.66v3.587h4.796v-3.588h.67v7.991h-.67zm9.776 0l-5.322-6.71v6.706h-.66v-7.987h.496l5.41 6.828v-6.818h.66v7.981h-.584zm6.935.055a3.305 3.305 0 01-1.518-.351 3.87 3.87 0 01-1.17-.915 3.958 3.958 0 01-.76-1.294 4.264 4.264 0 01.016-3.018c.184-.477.444-.908.78-1.292.332-.38.726-.678 1.18-.896a3.338 3.338 0 011.482-.334 3.258 3.258 0 011.516.355 3.7 3.7 0 011.17.933 4.336 4.336 0 011.022 2.801 4.201 4.201 0 01-.284 1.5 4.301 4.301 0 01-.782 1.289 3.732 3.732 0 01-1.18.89 3.31 3.31 0 01-1.472.332zm0-7.446a2.589 2.589 0 00-1.242.295 3.21 3.21 0 00-.964.77 3.52 3.52 0 00-.624 1.086 3.453 3.453 0 00-.225 1.247c-.002.44.074.866.23 1.278.144.402.355.764.635 1.086.273.316.595.566.968.752a2.677 2.677 0 001.225.28 2.652 2.652 0 001.241-.295 3.201 3.201 0 001.247-1.158 3.636 3.636 0 00.545-2.293 3.62 3.62 0 00-.218-.932 3.431 3.431 0 00-.644-1.085 3.211 3.211 0 00-.97-.753 2.614 2.614 0 00-1.204-.278zm6.341 7.391v-7.99h.66v7.347h4.704v.643h-5.364zm10.316.055a3.308 3.308 0 01-1.518-.351 3.861 3.861 0 01-1.17-.915 3.967 3.967 0 01-.76-1.294 4.264 4.264 0 01.016-3.018c.184-.477.444-.908.78-1.292a3.66 3.66 0 011.18-.896 3.338 3.338 0 011.482-.334 3.258 3.258 0 011.516.355 3.71 3.71 0 011.17.933c.326.389.578.821.754 1.298a4.213 4.213 0 01-.016 3.004 4.289 4.289 0 01-.78 1.288 3.729 3.729 0 01-1.18.89 3.361 3.361 0 01-1.474.332zm0-7.446a2.594 2.594 0 00-1.242.295 3.196 3.196 0 00-.963.77A3.476 3.476 0 0066 90.687a3.58 3.58 0 00-.168 1.905c.039.212.096.419.171.62.145.403.358.765.638 1.087.273.316.596.566.968.751a2.691 2.691 0 001.225.28 2.626 2.626 0 001.242-.295 3.193 3.193 0 001.246-1.158 3.545 3.545 0 00.401-.868 3.68 3.68 0 00.16-.944 3.556 3.556 0 00-.093-.953 3.545 3.545 0 00-.14-.459 3.447 3.447 0 00-.647-1.086 3.206 3.206 0 00-.97-.753 2.617 2.617 0 00-1.204-.278zm9.588 7.446a3.312 3.312 0 01-1.519-.356 3.839 3.839 0 01-1.184-.93 4.376 4.376 0 01-.769-1.295 4.01 4.01 0 01-.278-1.47c0-.52.09-1.025.267-1.514.173-.476.423-.907.75-1.292a3.645 3.645 0 011.15-.9 3.204 3.204 0 011.475-.341c.367-.005.729.037 1.084.128.306.078.593.2.862.367.246.151.462.338.649.559.18.218.334.454.46.708l.064.13-.57.295-.068-.128c-.264-.5-.61-.862-1.026-1.081a3.104 3.104 0 00-1.453-.333 2.573 2.573 0 00-1.238.295 3.05 3.05 0 00-.942.77 3.54 3.54 0 00-.596 1.085 3.9 3.9 0 00-.207 1.249c-.002.444.08.873.244 1.285.159.4.38.76.664 1.082.279.313.607.563.982.748a2.693 2.693 0 001.207.28 2.882 2.882 0 001.317-.319c.4-.208.799-.54 1.186-.983v-1.47h-1.77v-.62h2.406v3.992h-.64v-1.02c-.729.716-1.571 1.079-2.507 1.079zm7.758-.055v-3.072l-3.174-4.919h.76l2.747 4.246 2.756-4.246h.77l-3.198 4.939v3.052h-.66zM0 76.204h2.124v-8.716l6.775 8.716h1.808V63.952H8.583v8.472l-6.582-8.472H0v12.252zm19.73.21c3.774 0 6.442-2.888 6.442-6.336 0-3.483-2.633-6.336-6.407-6.336s-6.442 2.888-6.442 6.336c0 3.483 2.633 6.337 6.407 6.337zm.035-1.977c-2.44 0-4.178-1.978-4.178-4.359 0-2.415 1.703-4.358 4.143-4.358 2.44 0 4.178 1.978 4.178 4.358 0 2.416-1.703 4.359-4.143 4.359zm14.289 1.767h4.58c3.862 0 6.53-2.678 6.53-6.126 0-3.483-2.668-6.126-6.53-6.126h-4.58v12.252zm2.158-1.96v-8.331h2.423c2.58 0 4.265 1.768 4.265 4.165 0 2.433-1.685 4.166-4.265 4.166h-2.422zm17.43 2.17c3.775 0 6.443-2.888 6.443-6.336 0-3.483-2.633-6.336-6.407-6.336s-6.442 2.888-6.442 6.336c0 3.483 2.633 6.337 6.407 6.337zm.036-1.977c-2.44 0-4.177-1.978-4.177-4.359 0-2.415 1.702-4.358 4.142-4.358 2.44 0 4.178 1.978 4.178 4.358 0 2.416-1.703 4.359-4.143 4.359zm14.885 1.978c3.774 0 6.443-2.889 6.443-6.337 0-3.483-2.634-6.336-6.408-6.336-3.773 0-6.442 2.888-6.442 6.336 0 3.483 2.633 6.337 6.407 6.337zm.035-1.978c-2.44 0-4.177-1.978-4.177-4.359 0-2.415 1.702-4.358 4.142-4.358 2.44 0 4.178 1.978 4.178 4.358 0 2.416-1.703 4.359-4.143 4.359zm9.023 1.767h2.16v-4.27h2.667l3.054 4.27h2.545l-3.317-4.638c1.72-.49 2.932-1.698 2.932-3.71 0-2.363-1.686-3.904-4.565-3.904h-5.476v12.252zm2.16-6.178v-4.113h3.141c1.597 0 2.545.717 2.545 2.03 0 1.278-.983 2.083-2.528 2.083H79.78zm14.831 6.353c2.581 0 4.389-1.365 4.389-3.657 0-2.066-1.352-2.994-3.95-3.624-2.352-.56-2.913-.98-2.913-1.925 0-.84.737-1.488 2-1.488 1.124 0 2.23.438 3.336 1.26l1.158-1.627c-1.246-.998-2.668-1.54-4.458-1.54-2.44 0-4.196 1.452-4.196 3.553 0 2.293 1.475 3.062 4.09 3.675 2.283.543 2.774 1.015 2.774 1.89 0 .963-.843 1.576-2.177 1.576-1.527 0-2.703-.578-3.879-1.593l-1.299 1.54c1.475 1.313 3.248 1.96 5.125 1.96zM20.657 0h58.028a2.652 2.652 0 012.648 2.64v51.715a2.651 2.651 0 01-2.648 2.64H20.657a2.651 2.651 0 01-2.648-2.64V2.64A2.652 2.652 0 0120.657 0zM32.38 13.578l3.726.077-.128-3.684-7.588.163.031 35.17c1.818.527 22.906.466 25.854.17-.132-1.347-.703-2.425-1.465-3.436l-20.473-.052.043-28.408zM63 14.734c6.722 2.116 5.329 20.3 2.681 24.041-1.862 2.632-3.965 2.22-7.045 3.232-.38 1.43.14 2.104.94 3.253 9.4.213 12.233-6.273 12.479-15.418.234-8.69-.742-18.3-9.065-19.043l.01 3.935zm-.352 30.92l-3.427.143-13.044-31.739-3.578-.081c.187 2.137 12.969 33.117 14.909 37.791l4.972.011.168-6.125zM40.221 9.47l3.695.071c-.01-1.517-1.356-4.266-1.988-5.809l-5.282.094.069 37.746 3.824.166-.318-32.268zm22.321 31.18l-.039-36.884-3.853.02.263 37.624 3.63-.76zM40.905 13.52l17.305.016.003-3.604-17.472.018.164 3.57zM36.66 51.704l3.85-.018.039-5.54-3.935-.022.046 5.58z" fill="#fff"/></svg>