<svg width="30" height="28" fill="none" xmlns="http://www.w3.org/2000/svg"><path d="M9.666 18.395h15.939a.88.88 0 00.846-.638l3.515-12.305a.879.879 0 00-.845-1.12H7.64l-.63-2.827a.88.88 0 00-.858-.689H.88a.879.879 0 100 1.758h4.568l3.174 14.28a2.64 2.64 0 00-1.59 2.42 2.64 2.64 0 002.637 2.636h15.938a.879.879 0 000-1.758H9.667a.88.88 0 01-.002-1.758zM27.956 6.09l-3.014 10.547h-14.57L8.03 6.09h19.927zM8.789 24.547a2.64 2.64 0 002.637 2.637 2.64 2.64 0 002.636-2.637 2.64 2.64 0 00-2.636-2.637 2.64 2.64 0 00-2.637 2.637zm2.637-.879a.88.88 0 010 1.758.88.88 0 010-1.758zm9.784.879a2.64 2.64 0 002.638 2.637 2.64 2.64 0 002.636-2.637 2.64 2.64 0 00-2.636-2.637 2.64 2.64 0 00-2.637 2.637zm2.638-.879a.88.88 0 010 1.758.88.88 0 010-1.758z" fill="#181818"/></svg>