<svg width="128" height="116" fill="none" xmlns="http://www.w3.org/2000/svg"><path d="M5.352 0h117.296C125.591 0 128 2.418 128 5.373v105.255c0 2.955-2.409 5.372-5.352 5.372H5.352C2.409 116 0 113.583 0 110.628V5.373C0 2.418 2.409 0 5.352 0zm23.696 27.635l7.533.158-.26-7.499-15.338.332.063 71.582c3.675 1.071 46.301.948 52.26.346-.267-2.742-1.42-4.936-2.96-6.994l-41.385-.106.087-57.819zm61.896 2.352c13.587 4.307 10.77 41.318 5.418 48.932-3.763 5.356-8.015 4.518-14.241 6.578-.766 2.912.285 4.283 1.902 6.62 19.001.434 24.725-12.767 25.223-31.38.474-17.687-1.499-37.247-18.323-38.757l.021 8.007zm-.712 62.933l-6.928.291-26.367-64.599-7.232-.165c.379 4.35 26.215 67.404 30.136 76.917l10.05.022.341-12.466zM44.9 19.272l7.469.145c-.02-3.088-2.741-8.683-4.019-11.822l-10.677.19.139 76.825 7.73.336-.642-65.674zm45.119 63.465l-.08-75.07-7.788.04.531 76.577 7.337-1.547zM46.28 27.517l34.98.033.006-7.336-35.316.036.33 7.267zm-8.578 77.717l7.784-.037.077-11.277-7.953-.043.092 11.357z" fill="#399A3A"/></svg>