<svg width="30" height="28" fill="none" xmlns="http://www.w3.org/2000/svg"><path d="M27.577 3.261a8.235 8.235 0 00-5.87-2.43c-2.22 0-4.306.866-5.877 2.437l-.82.82-.834-.833A8.276 8.276 0 008.293.813a8.243 8.243 0 00-5.863 2.43A8.223 8.223 0 000 9.118c0 2.22.871 4.3 2.442 5.87l11.944 11.944a.864.864 0 00.605.254.858.858 0 00.604-.248l11.97-11.925A8.255 8.255 0 0030 9.138a8.217 8.217 0 00-2.423-5.877zM26.356 13.8L14.99 25.12 3.65 13.78a6.547 6.547 0 01-1.932-4.66c0-1.762.68-3.416 1.927-4.656a6.539 6.539 0 014.65-1.927c1.761 0 3.421.687 4.668 1.934L14.4 5.908a.856.856 0 001.215 0l1.424-1.425A6.558 6.558 0 0121.7 2.55c1.756 0 3.41.687 4.656 1.927a6.541 6.541 0 011.927 4.662 6.516 6.516 0 01-1.927 4.662z" fill="#181818"/></svg>