<svg width="14" height="14" fill="none" xmlns="http://www.w3.org/2000/svg"><g clip-path="url(#clip0_20_1034)"><path d="M1.798 0h10.405C13.192 0 14 .81 14 1.798v10.405a1.8 1.8 0 01-1.797 1.796H1.798A1.802 1.802 0 010 12.203V1.798C0 .808.809 0 1.798 0zm8.4 1.555a.632.632 0 00-.63.631v1.508c0 .348.284.631.63.631h1.583c.346 0 .63-.284.63-.63v-1.51a.633.633 0 00-.63-.63h-1.582zm2.22 4.365h-1.233c.117.382.18.784.18 1.203 0 2.327-1.949 4.215-4.352 4.215-2.403 0-4.352-1.888-4.352-4.215 0-.419.064-.821.18-1.203H1.556v5.915c0 .306.25.555.556.555h9.75c.306 0 .555-.25.555-.555V5.92zM7.012 4.246c-1.552 0-2.811 1.219-2.811 2.724 0 1.504 1.26 2.725 2.811 2.725 1.553 0 2.812-1.22 2.812-2.725 0-1.505-1.259-2.724-2.812-2.724z" fill="#fff"/></g><defs><clipPath id="clip0_20_1034"><path fill="#fff" d="M0 0h14v14H0z"/></clipPath></defs></svg>