<svg width="14" height="14" fill="none" xmlns="http://www.w3.org/2000/svg"><g clip-path="url(#clip0_20_1007)"><path fill-rule="evenodd" clip-rule="evenodd" d="M12.049 8.076c.464.453.955.88 1.371 1.38.184.22.358.45.492.707.188.366.017.769-.31.79h-2.04c-.526.043-.946-.168-1.299-.528-.282-.288-.544-.594-.815-.891a1.931 1.931 0 00-.367-.326c-.279-.181-.52-.126-.68.165-.162.295-.198.622-.214.951-.022.48-.167.607-.65.629-1.03.048-2.01-.108-2.918-.628-.802-.458-1.423-1.106-1.964-1.838C1.602 7.06.795 5.492.071 3.88c-.163-.363-.044-.558.357-.565a55.38 55.38 0 011.996-.001c.27.004.45.159.554.414.36.886.8 1.728 1.354 2.508.147.208.297.416.51.562.237.162.417.109.529-.155a1.74 1.74 0 00.117-.526c.053-.615.06-1.23-.033-1.843-.057-.383-.272-.631-.654-.704-.195-.036-.166-.109-.072-.22.164-.192.318-.312.626-.312H7.66c.363.072.443.235.493.6l.002 2.56c-.004.142.07.561.325.655.204.066.338-.097.46-.226.552-.585.946-1.278 1.298-1.995.156-.315.29-.642.42-.97.097-.242.248-.361.522-.356l2.218.002c.066 0 .133.001.196.012.374.064.476.224.361.59-.182.572-.536 1.05-.882 1.529-.37.512-.766 1.006-1.132 1.521-.338.47-.31.708.108 1.116z" fill="#fff"/></g><defs><clipPath id="clip0_20_1007"><path fill="#fff" d="M0 0h14v14H0z"/></clipPath></defs></svg>