<svg width="99" height="96" viewBox="0 0 99 96" fill="none" xmlns="http://www.w3.org/2000/svg">
<path d="M7.33622 95.9216V88.574H4.47082V87.93H10.875V88.574H8.00594V95.9216H7.33622ZM13.1924 95.9261V87.9351H18.4483V88.5791H13.8525V91.5227H17.8768V92.1667H13.8525V95.2872H18.5461V95.9261H13.1924ZM24.3499 95.9999C24.0886 96.0022 23.8309 95.9719 23.5769 95.9101C23.3228 95.8478 23.0798 95.7562 22.8483 95.6339C22.3959 95.3994 22.0064 95.0861 21.6798 94.6932C21.3522 94.3002 21.0996 93.8637 20.9223 93.3828C20.7367 92.8986 20.6439 92.3966 20.6439 91.8773C20.6471 91.3872 20.7317 90.9117 20.8979 90.451C21.0629 89.9824 21.3045 89.5578 21.6228 89.1772C21.9526 88.7852 22.3463 88.4765 22.8042 88.2502C23.2728 88.0148 23.8116 87.8957 24.4055 87.8957C25.1124 87.8957 25.7257 88.0624 26.2264 88.3913C26.4675 88.5461 26.683 88.7311 26.8722 88.9473C27.0615 89.163 27.2172 89.4012 27.3394 89.6614L27.4023 89.7946L26.8189 90.0699L26.7537 89.9444C26.6297 89.6998 26.4703 89.4809 26.2755 89.2885C26.1014 89.1154 25.9057 88.9716 25.6889 88.8571C25.4813 88.749 25.2627 88.6697 25.0344 88.6194C24.8097 88.5726 24.5828 88.5497 24.3536 88.5493C24.129 88.5456 23.9067 88.569 23.6876 88.6189C23.468 88.6684 23.2576 88.7439 23.0564 88.8442C22.6834 89.0348 22.3633 89.2913 22.095 89.6133C21.8304 89.9371 21.632 90.2975 21.5002 90.6946C21.3656 91.0904 21.2985 91.4971 21.298 91.9148C21.2967 92.3646 21.3766 92.7992 21.5378 93.2188C21.6912 93.625 21.9108 93.9915 22.1951 94.3189C22.4749 94.6345 22.8038 94.8851 23.1814 95.0706C23.3692 95.1635 23.5649 95.2336 23.7684 95.2808C23.9724 95.328 24.1791 95.3513 24.3881 95.3504C24.6297 95.349 24.8681 95.3179 25.1023 95.2574C25.349 95.1983 25.5842 95.1086 25.8084 94.989C26.038 94.8654 26.2466 94.7124 26.434 94.5301C26.6315 94.3336 26.7946 94.1119 26.9232 93.8646L26.9847 93.7492L27.5713 93.9809L27.5098 94.1215C27.3729 94.4275 27.1873 94.6991 26.9521 94.9364C26.7215 95.1704 26.4625 95.3669 26.1754 95.5263C25.892 95.6838 25.5934 95.802 25.2787 95.8799C24.9737 95.9568 24.6641 95.9967 24.3499 95.9999ZM35.462 95.9261V92.1667H30.6659V95.9261H30.0059V87.9351H30.6659V91.5227H35.462V87.9351H36.1326V95.9261H35.462ZM45.2382 95.9261L39.9163 89.2162V95.9216H39.2562V87.9351H39.7523L45.1624 94.7628V87.9447H45.8225V95.9261H45.2382ZM52.1734 95.9806C51.9098 95.9834 51.6502 95.955 51.3935 95.8959C51.1367 95.8364 50.8905 95.748 50.6548 95.6298C50.2065 95.4008 49.817 95.0957 49.4858 94.7151C49.15 94.3327 48.8969 93.9012 48.7256 93.4208C48.5474 92.9403 48.4583 92.4434 48.4578 91.9308C48.4573 91.4037 48.552 90.8948 48.7412 90.4033C48.9249 89.9261 49.1849 89.4951 49.5207 89.1108C49.8533 88.7316 50.2469 88.4329 50.7012 88.2154C50.9323 88.1036 51.173 88.0194 51.4233 87.963C51.6732 87.9067 51.9268 87.8792 52.1831 87.881C52.4463 87.8783 52.7058 87.9071 52.9621 87.9671C53.2185 88.0271 53.4637 88.1169 53.6985 88.236C54.1518 88.4673 54.5418 88.7783 54.8684 89.1694C55.195 89.5578 55.4467 89.9902 55.6227 90.4666C55.7127 90.707 55.7802 90.9534 55.8252 91.2058C55.8703 91.4586 55.8923 91.7133 55.8909 91.9702C55.8896 92.2267 55.8652 92.4814 55.8174 92.7333C55.7697 92.9857 55.6994 93.2312 55.6071 93.4707C55.4219 93.9466 55.161 94.3757 54.8248 94.7586C54.4904 95.1342 54.0967 95.431 53.6443 95.6486C53.4151 95.7594 53.1762 95.8428 52.9277 95.8987C52.6792 95.9545 52.4279 95.982 52.1734 95.9806ZM52.1734 88.5346C51.9571 88.5314 51.744 88.5543 51.534 88.6042C51.3237 88.6542 51.1225 88.7293 50.9309 88.8296C50.5602 89.0238 50.2391 89.2812 49.9672 89.6009C49.6944 89.9243 49.4863 90.2861 49.3434 90.6855C49.1914 91.0872 49.116 91.5031 49.1179 91.9331C49.1156 92.3733 49.1923 92.7992 49.3475 93.211C49.4918 93.6131 49.7035 93.975 49.9828 94.297C50.2557 94.6125 50.5781 94.8631 50.9507 95.0486C51.1413 95.1429 51.3397 95.2135 51.5469 95.2606C51.7541 95.3078 51.9635 95.3303 52.1757 95.3284C52.3916 95.3307 52.6048 95.3069 52.8147 95.2574C53.0246 95.2075 53.2258 95.1329 53.4174 95.0335C53.7885 94.8393 54.1096 94.5818 54.3811 94.2622C54.484 94.1399 54.5781 94.0107 54.664 93.8756C54.7495 93.7405 54.8262 93.5999 54.8932 93.4547C54.9603 93.309 55.0173 93.1602 55.0646 93.0067C55.1119 92.8537 55.1491 92.698 55.1757 92.54C55.2024 92.382 55.2184 92.2231 55.2244 92.0628C55.2299 91.9024 55.2249 91.7426 55.2093 91.5832C55.1936 91.4238 55.1679 91.2658 55.1312 91.1096C55.0949 90.9539 55.048 90.8009 54.9915 90.6511C54.8436 90.249 54.6286 89.8876 54.3471 89.5661C54.0724 89.2523 53.749 89.0014 53.3778 88.8126C53.1909 88.7192 52.9957 88.6487 52.7922 88.602C52.5887 88.5548 52.3824 88.5328 52.1734 88.5346ZM58.5143 95.9261V87.9351H59.1743V95.2826H63.8776V95.9261H58.5143ZM68.8302 95.9806C68.567 95.9834 68.3071 95.955 68.0503 95.8959C67.7935 95.8364 67.5473 95.748 67.3117 95.6298C66.8633 95.4008 66.4738 95.0962 66.1426 94.7151C65.8073 94.3327 65.5537 93.9012 65.3824 93.4208C65.2042 92.9403 65.1151 92.4434 65.1146 91.9308C65.1141 91.4037 65.2088 90.8948 65.398 90.4033C65.5822 89.9261 65.8417 89.4951 66.1775 89.1108C66.5106 88.7316 66.9038 88.4329 67.358 88.2154C67.5891 88.1036 67.8298 88.0194 68.0801 87.963C68.3305 87.9067 68.5836 87.8792 68.8399 87.881C69.1031 87.8783 69.3626 87.9071 69.6189 87.9671C69.8753 88.0271 70.1206 88.1169 70.3557 88.236C70.8086 88.4673 71.1986 88.7783 71.5257 89.1694C71.8523 89.5578 72.1036 89.9902 72.2795 90.4666C72.3695 90.707 72.437 90.9534 72.482 91.2058C72.5271 91.4586 72.5491 91.7133 72.5477 91.9702C72.5464 92.2267 72.522 92.4814 72.4742 92.7333C72.4265 92.9857 72.3562 93.2312 72.2639 93.4707C72.0797 93.9461 71.8197 94.3757 71.4839 94.7586C71.1495 95.1342 70.7563 95.431 70.3038 95.6486C70.0737 95.7594 69.8344 95.8428 69.5859 95.8991C69.3369 95.955 69.0852 95.982 68.8302 95.9806ZM68.8302 88.5346C68.6144 88.5314 68.4012 88.5543 68.1908 88.6042C67.9805 88.6542 67.7797 88.7293 67.5877 88.8296C67.217 89.0238 66.8959 89.2812 66.6245 89.6009C66.3512 89.9243 66.1431 90.2861 66.0007 90.6855C65.9253 90.8875 65.8688 91.0945 65.8312 91.307C65.7931 91.5191 65.7742 91.7334 65.7747 91.9492C65.7747 92.1649 65.7944 92.3788 65.833 92.5908C65.8716 92.8029 65.9286 93.0099 66.0043 93.2119C66.1495 93.6141 66.3622 93.9759 66.6424 94.2979C66.9148 94.6135 67.2377 94.864 67.6098 95.0495C67.8004 95.1438 67.9993 95.2144 68.206 95.2616C68.4132 95.3087 68.6226 95.3316 68.8353 95.3293C69.0507 95.3316 69.2639 95.3083 69.4738 95.2583C69.6842 95.2084 69.8849 95.1338 70.0769 95.0344C70.4481 94.8402 70.7691 94.5832 71.0406 94.2631C71.1435 94.1408 71.2377 94.0116 71.3231 93.8765C71.409 93.7414 71.4853 93.6012 71.5523 93.4556C71.6194 93.3099 71.6768 93.1611 71.7241 93.0076C71.7714 92.8547 71.8082 92.6994 71.8353 92.5414C71.8619 92.3829 71.878 92.224 71.8835 92.0637C71.8895 91.9038 71.8844 91.7435 71.8688 91.5841C71.8532 91.4247 71.8275 91.2667 71.7907 91.111C71.7544 90.9548 71.7081 90.8018 71.6511 90.652C71.5023 90.2499 71.2864 89.8881 71.0039 89.5661C70.7292 89.2523 70.4063 89.0014 70.0347 88.8126C69.8477 88.7192 69.6525 88.6487 69.449 88.602C69.2455 88.5548 69.0392 88.5328 68.8302 88.5346ZM78.4177 95.9806C78.1541 95.9825 77.8941 95.9536 77.6373 95.8936C77.3805 95.8332 77.1348 95.7439 76.8991 95.6252C76.4435 95.3939 76.0489 95.0838 75.7154 94.6959C75.3842 94.3084 75.1279 93.8765 74.9464 93.3997C74.7613 92.9275 74.6685 92.4379 74.6676 91.9308C74.6681 91.4096 74.7572 90.9049 74.9354 90.4157C75.1081 89.9398 75.358 89.5093 75.6851 89.1241C76.0085 88.7458 76.3915 88.4453 76.8353 88.2232C77.0645 88.1087 77.3033 88.0226 77.5528 87.9653C77.8017 87.9076 78.0544 87.8806 78.3102 87.8829C78.6773 87.8778 79.0387 87.9204 79.3943 88.0107C79.7002 88.089 79.9873 88.2113 80.256 88.3775C80.5018 88.5291 80.7181 88.7155 80.9046 88.9368C81.0851 89.1548 81.2386 89.3911 81.3649 89.6449L81.4292 89.7749L80.8591 90.0699L80.7912 89.9417C80.5266 89.4429 80.1811 89.0801 79.7645 88.8607C79.539 88.7471 79.3038 88.6624 79.058 88.6061C78.8123 88.5502 78.5633 88.5241 78.3116 88.5282C78.0962 88.525 77.884 88.5484 77.6745 88.5983C77.465 88.6482 77.2648 88.7233 77.0741 88.8232C76.7085 89.016 76.3943 89.2725 76.1316 89.5922C75.8693 89.9188 75.6708 90.2806 75.5358 90.6777C75.3989 91.0826 75.33 91.4989 75.3291 91.9267C75.3268 92.3715 75.4081 92.8002 75.5734 93.2124C75.7319 93.6118 75.9529 93.9722 76.2367 94.2938C76.516 94.607 76.8435 94.8567 77.2193 95.0422C77.4072 95.1351 77.6028 95.2052 77.8063 95.2524C78.0103 95.2996 78.2165 95.3229 78.426 95.322C78.6547 95.322 78.8807 95.295 79.1031 95.2414C79.3259 95.1874 79.539 95.1081 79.7429 95.0032C80.143 94.7953 80.5417 94.4628 80.929 94.0203V92.5501H79.1591V91.9308H81.5647V95.9216H80.9244V94.9011C80.1963 95.6179 79.3539 95.9806 78.4177 95.9806ZM86.1765 95.9261V92.8537L83.002 87.9351H83.7622L86.5091 92.1814L89.2647 87.9351H90.0355L86.8366 92.8739V95.9261H86.1765ZM0 76.2043H2.12356V67.4882L8.89937 76.2043H10.7074V63.9523H8.58334V72.4238L2.00091 63.9523H0V76.2043ZM19.7298 76.4145C23.5038 76.4145 26.1722 73.5263 26.1722 70.0783C26.1722 66.5955 23.5387 63.7425 19.7647 63.7425C15.9908 63.7425 13.3229 66.6303 13.3229 70.0783C13.3229 73.5615 15.9558 76.4145 19.7298 76.4145ZM19.7647 74.4368C17.3252 74.4368 15.5874 72.4586 15.5874 70.0783C15.5874 67.6632 17.2898 65.7202 19.7298 65.7202C22.1699 65.7202 23.9076 67.698 23.9076 70.0783C23.9076 72.4939 22.2048 74.4368 19.7647 74.4368ZM34.0536 76.2043H38.6347C42.4964 76.2043 45.1647 73.5263 45.1647 70.0783C45.1647 66.5955 42.4964 63.9523 38.6347 63.9523H34.0536V76.2043ZM36.2125 74.244V65.9126H38.6347C41.2153 65.9126 42.9002 67.6806 42.9002 70.0783C42.9002 72.5113 41.2153 74.244 38.6347 74.244H36.2125ZM53.6429 76.4145C57.4169 76.4145 60.0852 73.5263 60.0852 70.0783C60.0852 66.5955 57.4522 63.7425 53.6783 63.7425C49.9043 63.7425 47.2359 66.6303 47.2359 70.0783C47.2359 73.5615 49.8689 76.4145 53.6429 76.4145ZM53.6783 74.4368C51.2382 74.4368 49.5005 72.4586 49.5005 70.0783C49.5005 67.6632 51.2028 65.7202 53.6429 65.7202C56.0829 65.7202 57.8206 67.698 57.8206 70.0783C57.8206 72.4939 56.1178 74.4368 53.6783 74.4368ZM68.5634 76.4145C72.3374 76.4145 75.0057 73.5263 75.0057 70.0783C75.0057 66.5955 72.3723 63.7425 68.5983 63.7425C64.8248 63.7425 62.1564 66.6303 62.1564 70.0783C62.1564 73.5615 64.7894 76.4145 68.5634 76.4145ZM68.5983 74.4368C66.1587 74.4368 64.421 72.4586 64.421 70.0783C64.421 67.6632 66.1233 65.7202 68.5634 65.7202C71.0034 65.7202 72.7411 67.698 72.7411 70.0783C72.7411 72.4939 71.0383 74.4368 68.5983 74.4368ZM77.6208 76.2043H79.7801V71.9337H82.448L85.5022 76.2043H88.0474L84.7301 71.5659C86.4503 71.0759 87.6616 69.8685 87.6616 67.8555C87.6616 65.4926 85.9763 63.9523 83.0975 63.9523H77.6208V76.2043ZM79.7801 70.0261V65.9126H82.9221C84.5192 65.9126 85.4673 66.6303 85.4673 67.943C85.4673 69.2209 84.4843 70.0261 82.9395 70.0261H79.7801ZM94.6124 76.3793C97.193 76.3793 99.001 75.0144 99.001 72.7215C99.001 70.6559 97.6492 69.7284 95.0516 69.0981C92.6992 68.538 92.1375 68.118 92.1375 67.1731C92.1375 66.3326 92.8747 65.6854 94.1388 65.6854C95.2619 65.6854 96.368 66.1228 97.4737 66.9454L98.6322 65.3176C97.386 64.3201 95.9643 63.7773 94.1738 63.7773C91.7337 63.7773 89.9785 65.2302 89.9785 67.3306C89.9785 69.6235 91.453 70.3934 94.0686 71.0062C96.3506 71.5485 96.8421 72.0212 96.8421 72.8965C96.8421 73.8588 95.9992 74.4716 94.6652 74.4716C93.1384 74.4716 91.962 73.8941 90.7861 72.8786L89.487 74.4189C90.9615 75.7316 92.7346 76.3793 94.6124 76.3793ZM20.6568 0H78.6851C80.1412 0 81.3327 1.1881 81.3327 2.64002V54.3545C81.3327 55.8064 80.1412 56.9941 78.6851 56.9941H20.6568C19.2007 56.9941 18.0091 55.8064 18.0091 54.3545V2.64002C18.0091 1.1881 19.2007 0 20.6568 0ZM32.3798 13.578L36.1065 13.6554L35.9778 9.97108L28.3899 10.1341L28.4211 45.3045C30.2392 45.8308 51.3269 45.7703 54.275 45.4744C54.1427 44.1274 53.5722 43.0492 52.8101 42.0379L32.3366 41.9857L32.3798 13.578ZM63.0007 14.7336C69.7223 16.8496 68.3287 35.0339 65.681 38.775C63.8193 41.4068 61.7159 40.995 58.6355 42.0072C58.2566 43.4376 58.7766 44.1114 59.5767 45.2596C68.9768 45.473 71.8087 38.987 72.0549 29.8418C72.2891 21.1518 71.313 11.5412 62.9901 10.7992L63.0007 14.7336ZM62.6484 45.6544L59.2207 45.7973L46.1767 14.058L42.5988 13.9769C42.7863 16.1145 55.568 47.0944 57.5078 51.7685L62.4798 51.7791L62.6484 45.6544ZM40.2213 9.46863L43.9163 9.54008C43.9066 8.02312 42.5603 5.27409 41.9282 3.73148L36.6462 3.82538L36.7146 41.5712L40.5391 41.7365L40.2213 9.46863ZM62.5423 40.651L62.5032 3.76675L58.6502 3.7869L58.913 41.4113L62.5423 40.651ZM40.9048 13.5198L58.2102 13.5363L58.2129 9.93169L40.7413 9.94955L40.9048 13.5198ZM36.6609 51.7044L40.5116 51.6861L40.5497 46.1454L36.6154 46.1244L36.6609 51.7044Z" fill="white"/>
</svg>
