<svg width="30" height="28" viewBox="0 0 30 28" fill="none" xmlns="http://www.w3.org/2000/svg">
<path d="M9.66568 18.3948H9.66705L9.67049 18.3945H25.6055C25.9978 18.3945 26.3427 18.1343 26.4505 17.7571L29.9661 5.45242C30.0419 5.18714 29.9888 4.90195 29.8228 4.68177C29.6567 4.46159 29.3969 4.33204 29.1211 4.33204H7.6387L7.01042 1.50466C6.92093 1.10252 6.56433 0.816414 6.15234 0.816414H0.878906C0.393448 0.816414 0 1.20986 0 1.69532C0 2.18078 0.393448 2.57423 0.878906 2.57423H5.44739C5.55862 3.07525 8.45398 16.1046 8.6206 16.8542C7.68654 17.2602 7.03125 18.1915 7.03125 19.2734C7.03125 20.7273 8.21411 21.9102 9.66797 21.9102H25.6055C26.0909 21.9102 26.4844 21.5167 26.4844 21.0313C26.4844 20.5458 26.0909 20.1524 25.6055 20.1524H9.66797C9.18342 20.1524 8.78906 19.758 8.78906 19.2734C8.78906 18.7896 9.18205 18.3959 9.66568 18.3948ZM27.9559 6.08985L24.9424 16.6367H10.3729L8.02917 6.08985H27.9559Z" fill="#181818"/>
<path d="M8.78903 24.5469C8.78903 26.0007 9.9719 27.1836 11.4258 27.1836C12.8796 27.1836 14.0625 26.0007 14.0625 24.5469C14.0625 23.093 12.8796 21.9102 11.4258 21.9102C9.9719 21.9102 8.78903 23.093 8.78903 24.5469ZM11.4258 23.668C11.9103 23.668 12.3047 24.0623 12.3047 24.5469C12.3047 25.0314 11.9103 25.4258 11.4258 25.4258C10.9412 25.4258 10.5468 25.0314 10.5468 24.5469C10.5468 24.0623 10.9412 23.668 11.4258 23.668Z" fill="#181818"/>
<path d="M21.2109 24.5469C21.2109 26.0007 22.3938 27.1836 23.8476 27.1836C25.3015 27.1836 26.4844 26.0007 26.4844 24.5469C26.4844 23.093 25.3015 21.9102 23.8476 21.9102C22.3938 21.9102 21.2109 23.093 21.2109 24.5469ZM23.8476 23.668C24.3322 23.668 24.7265 24.0623 24.7265 24.5469C24.7265 25.0314 24.3322 25.4258 23.8476 25.4258C23.3631 25.4258 22.9687 25.0314 22.9687 24.5469C22.9687 24.0623 23.3631 23.668 23.8476 23.668Z" fill="#181818"/>
</svg>
