<svg width="128" height="116" viewBox="0 0 128 116" fill="none" xmlns="http://www.w3.org/2000/svg">
<path d="M5.3519 0H122.648C125.591 0 128 2.41814 128 5.37324V110.628C128 113.583 125.591 116 122.648 116H5.3519C2.40854 116 0 113.583 0 110.628V5.37324C0 2.41814 2.40854 0 5.3519 0ZM29.0483 27.6353L36.5812 27.7928L36.3213 20.2941L20.9833 20.626L21.0464 92.2082C24.7214 93.2794 67.3473 93.1563 73.3064 92.5541C73.039 89.8125 71.8858 87.6181 70.3454 85.5598L28.961 85.4535L29.0483 27.6353ZM90.9443 29.9872C104.531 34.294 101.714 71.3045 96.3621 78.9187C92.5989 84.2752 88.3473 83.4371 82.1207 85.4973C81.3547 88.4086 82.4058 89.7799 84.0232 92.1169C103.024 92.5513 108.748 79.3503 109.246 60.737C109.72 43.0502 107.747 23.4897 90.9229 21.9796L90.9443 29.9872ZM90.2321 92.9204L83.3036 93.2113L56.9369 28.6122L49.7047 28.4472C50.0836 32.7978 75.9202 95.8513 79.8412 105.364L89.8914 105.386L90.2321 92.9204ZM44.8988 19.2715L52.3677 19.4169C52.3482 16.3295 49.6267 10.7344 48.3491 7.59468L37.6722 7.78579L37.8106 84.6098L45.5413 84.9464L44.8988 19.2715ZM90.0176 82.737L89.9387 7.66646L82.1504 7.70748L82.6815 84.2845L90.0176 82.737ZM46.2804 27.5169L81.2609 27.5504L81.2665 20.214L45.9499 20.2503L46.2804 27.5169ZM37.7019 105.234L45.4856 105.197L45.5627 93.9198L37.61 93.8769L37.7019 105.234Z" fill="#399A3A"/>
</svg>
