<svg width="30" height="28" viewBox="0 0 30 28" fill="none" xmlns="http://www.w3.org/2000/svg">
<path d="M27.5768 3.26123C26.0059 1.69032 23.9262 0.831725 21.7066 0.831725C19.487 0.831725 17.4009 1.69668 15.83 3.26759L15.0095 4.08802L14.1764 3.25487C12.6055 1.68396 10.5131 0.812645 8.29342 0.812645C6.08016 0.812645 3.99409 1.6776 2.42954 3.24215C0.85863 4.81306 -0.00632514 6.89913 3.48254e-05 9.11875C3.48254e-05 11.3384 0.87135 13.4181 2.44226 14.989L14.3863 26.933C14.5516 27.0984 14.7742 27.1874 14.9905 27.1874C15.2067 27.1874 15.4293 27.1047 15.5947 26.9394L27.5641 15.0144C29.135 13.4435 30 11.3575 30 9.13783C30.0063 6.91821 29.1477 4.83214 27.5768 3.26123ZM26.3557 13.7997L14.9905 25.1204L3.65065 13.7806C2.4041 12.5341 1.71722 10.8805 1.71722 9.11875C1.71722 7.35705 2.39774 5.70345 3.64429 4.46326C4.88449 3.22307 6.53807 2.53619 8.29342 2.53619C10.0551 2.53619 11.7151 3.22307 12.9616 4.46962L14.399 5.90697C14.7361 6.24405 15.2767 6.24405 15.6137 5.90697L17.0384 4.48234C18.2849 3.23579 19.9449 2.54891 21.7002 2.54891C23.4556 2.54891 25.1092 3.23579 26.3557 4.47598C27.6023 5.72253 28.2828 7.37612 28.2828 9.13783C28.2891 10.8995 27.6023 12.5531 26.3557 13.7997Z" fill="#181818"/>
</svg>
