<svg width="14" height="14" viewBox="0 0 14 14" fill="none" xmlns="http://www.w3.org/2000/svg">
<g clip-path="url(#clip0_20_1034)">
<path d="M1.7976 0.000488281H12.2032C13.1918 0.000488281 14 0.808942 14 1.79753V12.2032C14 13.1915 13.1918 13.9994 12.2032 13.9994H1.7976C0.809013 13.9994 0 13.1914 0 12.2032V1.79753C0 0.808942 0.809013 0.000488281 1.7976 0.000488281ZM10.1988 1.55528C9.85171 1.55528 9.56858 1.83953 9.56858 2.18645V3.69444C9.56858 4.0415 9.85171 4.32509 10.1988 4.32509H11.781C12.1275 4.32509 12.4112 4.0415 12.4112 3.69444V2.18645C12.4112 1.83953 12.1275 1.55528 11.781 1.55528H10.1988ZM12.4173 5.92044H11.1854C11.3022 6.30194 11.3656 6.70425 11.3656 7.12252C11.3656 9.45035 9.41649 11.3384 7.01316 11.3384C4.61043 11.3384 2.66131 9.45035 2.66131 7.12252C2.66131 6.70425 2.72524 6.30194 2.84149 5.92044H1.55633V11.8346C1.55633 12.1409 1.80642 12.39 2.11241 12.39H11.8614C12.1677 12.39 12.4173 12.1409 12.4173 11.8346V5.92044ZM7.01321 4.24557C5.46107 4.24557 4.20201 5.46488 4.20201 6.97034C4.20201 8.47427 5.46107 9.69451 7.01321 9.69451C8.56618 9.69451 9.82529 8.47427 9.82529 6.97034C9.82529 5.46483 8.56618 4.24557 7.01321 4.24557Z" fill="white"/>
</g>
<defs>
<clipPath id="clip0_20_1034">
<rect width="14" height="14" fill="white"/>
</clipPath>
</defs>
</svg>
