<svg width="14" height="14" viewBox="0 0 14 14" fill="none" xmlns="http://www.w3.org/2000/svg">
<g clip-path="url(#clip0_20_1007)">
<path fill-rule="evenodd" clip-rule="evenodd" d="M12.049 8.07596C12.5134 8.52936 13.0035 8.95595 13.4201 9.45507C13.6041 9.67688 13.7782 9.90576 13.9115 10.1632C14.1003 10.5291 13.9293 10.9318 13.6012 10.9536L11.5616 10.9527C11.0356 10.9963 10.616 10.7846 10.2631 10.4249C9.98073 10.1373 9.71923 9.83115 9.44771 9.53382C9.33639 9.41229 9.21988 9.29794 9.08069 9.20756C8.80226 9.02683 8.56059 9.08217 8.40148 9.37255C8.23943 9.66791 8.20267 9.99495 8.18676 10.3241C8.16491 10.8044 8.01974 10.9306 7.53731 10.9526C6.50631 11.0013 5.52783 10.8453 4.61887 10.3252C3.81749 9.86666 3.19605 9.21938 2.65516 8.48658C1.60203 7.05967 0.795544 5.49173 0.0707047 3.87987C-0.0924507 3.51671 0.0268685 3.32177 0.427559 3.31487C1.09292 3.30195 1.75819 3.30287 2.42434 3.31395C2.69476 3.31791 2.87379 3.47301 2.9782 3.72849C3.33818 4.61363 3.77866 5.45576 4.33156 6.23635C4.4788 6.44417 4.62894 6.65199 4.84274 6.79827C5.07926 6.96022 5.25934 6.90655 5.37061 6.64307C5.44122 6.476 5.47213 6.29606 5.48805 6.11712C5.54076 5.50153 5.54771 4.887 5.45525 4.27356C5.39849 3.89072 5.18285 3.64288 4.80083 3.57044C4.60589 3.5335 4.63492 3.46096 4.72931 3.34969C4.89324 3.15779 5.04743 3.03833 5.35479 3.03833H7.6598C8.02268 3.10995 8.10327 3.27297 8.15295 3.6381L8.15493 6.1985C8.15097 6.33985 8.22554 6.7593 8.48013 6.85286C8.68391 6.91947 8.81822 6.75645 8.94049 6.62724C9.49237 6.0415 9.88625 5.34928 10.2381 4.63249C10.3943 4.31731 10.5286 3.98999 10.6587 3.66294C10.7551 3.42025 10.9064 3.30084 11.1798 3.30613L13.3982 3.30811C13.464 3.30811 13.5305 3.30908 13.5943 3.31998C13.9681 3.38368 14.0705 3.54449 13.9551 3.90954C13.7731 4.48226 13.4192 4.95954 13.0731 5.43902C12.7031 5.95093 12.3075 6.44532 11.9406 6.96027C11.6035 7.43051 11.6303 7.66754 12.049 8.07596Z" fill="white"/>
</g>
<defs>
<clipPath id="clip0_20_1007">
<rect width="14" height="14" fill="white"/>
</clipPath>
</defs>
</svg>
